HIERARCHY
ROOT hip
{
  OFFSET 0 0 0
  CHANNELS 6 Xposition Yposition Zposition Zrotation Yrotation Xrotation
  JOINT abdomen
  {
    OFFSET 0 20.6881 -0.73152
    CHANNELS 3 Zrotation Xrotation Yrotation
    JOINT chest
    {
      OFFSET 0 11.7043 -0.48768
      CHANNELS 3 Zrotation Xrotation Yrotation
      JOINT neck
      {
        OFFSET 0 22.1894 -2.19456
        CHANNELS 3 Zrotation Xrotation Yrotation
        JOINT head
        {
          OFFSET -0.24384 7.07133 1.2192
          CHANNELS 3 Zrotation Xrotation Yrotation
          JOINT leftEye
          {
            OFFSET 4.14528 8.04674 8.04672
            CHANNELS 3 Zrotation Xrotation Yrotation
            End Site
            {
              OFFSET 1 0 0
            }
          }
          JOINT rightEye
          {
            OFFSET -3.6576 8.04674 8.04672
            CHANNELS 3 Zrotation Xrotation Yrotation
            End Site
            {
              OFFSET 1 0 0
            }
          }
        }
      }
      JOINT rCollar
      {
        OFFSET -2.68224 19.2634 -4.8768
        CHANNELS 3 Zrotation Xrotation Yrotation
        JOINT rShldr
        {
          OFFSET -8.77824 -1.95073 1.46304
          CHANNELS 3 Zrotation Xrotation Yrotation
          JOINT rForeArm
          {
            OFFSET -28.1742 -1.7115 0.48768
            CHANNELS 3 Zrotation Xrotation Yrotation
            JOINT rHand
            {
              OFFSET -22.5879 0.773209 7.07136
              CHANNELS 3 Zrotation Xrotation Yrotation
              JOINT rThumb1
              {
                OFFSET -1.2192 -0.487915 3.41376
                CHANNELS 3 Zrotation Xrotation Yrotation
                JOINT rThumb2
                {
                  OFFSET -3.37035 -0.52449 3.41376
                  CHANNELS 3 Zrotation Xrotation Yrotation
                  End Site
                  {
                    OFFSET -1.78271 -1.18214 1.43049
                  }
                }
              }
              JOINT rIndex1
              {
                OFFSET -7.75947 0.938293 5.60832
                CHANNELS 3 Zrotation Xrotation Yrotation
                JOINT rIndex2
                {
                  OFFSET -2.54057 -0.884171 1.56538
                  CHANNELS 3 Zrotation Xrotation Yrotation
                  End Site
                  {
                    OFFSET -1.62519 -0.234802 1.16502
                  }
                }
              }
              JOINT rMid1
              {
                OFFSET -8.24714 1.18213 3.41376
                CHANNELS 3 Zrotation Xrotation Yrotation
                JOINT rMid2
                {
                  OFFSET -3.10165 -0.590103 1.0647
                  CHANNELS 3 Zrotation Xrotation Yrotation
                  End Site
                  {
                    OFFSET -2.48547 -0.328903 0.83742
                  }
                }
              }
              JOINT rRing1
              {
                OFFSET -8.82822 0.546677 1.51678
                CHANNELS 3 Zrotation Xrotation Yrotation
                JOINT rRing2
                {
                  OFFSET -2.60934 -0.819778 -0.0198488
                  CHANNELS 3 Zrotation Xrotation Yrotation
                  End Site
                  {
                    OFFSET -2.33842 -0.294052 0.168128
                  }
                }
              }
              JOINT rPinky1
              {
                OFFSET -8.27202 -0.0477905 -0.4584
                CHANNELS 3 Zrotation Xrotation Yrotation
                JOINT rPinky2
                {
                  OFFSET -1.82734 -0.647385 -0.700984
                  CHANNELS 3 Zrotation Xrotation Yrotation
                  End Site
                  {
                    OFFSET -1.69225 -0.51767 -0.607171
                  }
                }
              }
            }
          }
        }
      }
      JOINT lCollar
      {
        OFFSET 2.68224 19.2634 -4.8768
        CHANNELS 3 Zrotation Xrotation Yrotation
        JOINT lShldr
        {
          OFFSET 8.77824 -1.95073 1.46304
          CHANNELS 3 Zrotation Xrotation Yrotation
          JOINT lForeArm
          {
            OFFSET 28.1742 -1.7115 0.48768
            CHANNELS 3 Zrotation Xrotation Yrotation
            JOINT lHand
            {
              OFFSET 22.5879 0.773209 7.07136
              CHANNELS 3 Zrotation Xrotation Yrotation
              JOINT lThumb1
              {
                OFFSET 1.2192 -0.487915 3.41376
                CHANNELS 3 Zrotation Xrotation Yrotation
                JOINT lThumb2
                {
                  OFFSET 3.37035 -0.52449 3.41376
                  CHANNELS 3 Zrotation Xrotation Yrotation
                  End Site
                  {
                    OFFSET 1.78271 -1.18214 1.43049
                  }
                }
              }
              JOINT lIndex1
              {
                OFFSET 7.75947 0.938293 5.60832
                CHANNELS 3 Zrotation Xrotation Yrotation
                JOINT lIndex2
                {
                  OFFSET 2.54057 -0.884171 1.56538
                  CHANNELS 3 Zrotation Xrotation Yrotation
                  End Site
                  {
                    OFFSET 1.62519 -0.234802 1.16502
                  }
                }
              }
              JOINT lMid1
              {
                OFFSET 8.24714 1.18213 3.41376
                CHANNELS 3 Zrotation Xrotation Yrotation
                JOINT lMid2
                {
                  OFFSET 3.10165 -0.590103 1.0647
                  CHANNELS 3 Zrotation Xrotation Yrotation
                  End Site
                  {
                    OFFSET 2.48547 -0.328903 0.83742
                  }
                }
              }
              JOINT lRing1
              {
                OFFSET 8.82822 0.546677 1.51678
                CHANNELS 3 Zrotation Xrotation Yrotation
                JOINT lRing2
                {
                  OFFSET 2.60934 -0.819778 -0.0198488
                  CHANNELS 3 Zrotation Xrotation Yrotation
                  End Site
                  {
                    OFFSET 2.33842 -0.294052 0.168128
                  }
                }
              }
              JOINT lPinky1
              {
                OFFSET 8.27202 -0.0477905 -0.4584
                CHANNELS 3 Zrotation Xrotation Yrotation
                JOINT lPinky2
                {
                  OFFSET 1.82734 -0.647385 -0.700984
                  CHANNELS 3 Zrotation Xrotation Yrotation
                  End Site
                  {
                    OFFSET 1.69225 -0.51767 -0.607171
                  }
                }
              }
            }
          }
        }
      }
    }
  }
  JOINT rButtock
  {
    OFFSET -8.77824 4.35084 1.2192
    CHANNELS 3 Zrotation Xrotation Yrotation
    JOINT rThigh
    {
      OFFSET 0 -1.70687 -2.19456
      CHANNELS 3 Zrotation Xrotation Yrotation
      JOINT rShin
      {
        OFFSET 0 -36.8199 0.73152
        CHANNELS 3 Zrotation Xrotation Yrotation
        JOINT rFoot
        {
          OFFSET 0.73152 -45.1104 -5.12064
          CHANNELS 3 Zrotation Xrotation Yrotation
          End Site
          {
            OFFSET -1.1221 -3.69964 12.103
          }
        }
      }
    }
  }
  JOINT lButtock
  {
    OFFSET 8.77824 4.35084 1.2192
    CHANNELS 3 Zrotation Xrotation Yrotation
    JOINT lThigh
    {
      OFFSET 0 -1.70687 -2.19456
      CHANNELS 3 Zrotation Xrotation Yrotation
      JOINT lShin
      {
        OFFSET 0 -36.8199 0.73152
        CHANNELS 3 Zrotation Xrotation Yrotation
        JOINT lFoot
        {
          OFFSET -0.73152 -45.1104 -5.12064
          CHANNELS 3 Zrotation Xrotation Yrotation
          End Site
          {
            OFFSET 1.1221 -3.69964 12.103
          }
        }
      }
    }
  }
}
MOTION
Frames:	7
Frame Time:	0.00833333
17.0123 74.2841 20.2767 44.8623 -60.5346 -31.5168 -1.64672 13.9953 -6.75559 -2.23272 -5.3047 -2.01431 -10.5329 0.610332 -1.74796 9.80962 -12.2883 0.365314 -0.0 0.0 0.0 -0.0 0.0 0.0 2.47711e-13 1.35326e-12 6.25768e-14 107.069 30.7602 -41.6358 -26.0924 -46.0877 95.7399 -0.123851 -10.064 -1.42889 2.12513e-10 -1.83525e-09 -3.69622e-09 4.00604e-10 -3.19707e-09 -6.40013e-09 2.12516e-10 -1.83525e-09 -3.69622e-09 7.73091 5.47488 0.417314 2.1251e-10 -1.83525e-09 -3.69622e-09 2.90554 0.965183 0.102902 2.12519e-10 -1.83525e-09 -3.69622e-09 10.2786 0.731801 0.0259123 2.12507e-10 -1.83524e-09 -3.69622e-09 2.22167 -0.733487 -0.20892 2.47658e-13 1.35325e-12 6.21843e-14 -59.1799 46.896 -5.49283 -23.5265 -50.0702 104.771 0.953599 -26.6332 4.04008 1.66292e-09 -6.53343e-10 1.31653e-09 2.86137e-09 -1.13108e-09 2.30447e-09 1.66291e-09 -6.53343e-10 1.31655e-09 -7.73091 5.47488 -0.417314 1.66291e-09 -6.53342e-10 1.31654e-09 -2.90554 0.965183 -0.102902 1.66291e-09 -6.53342e-10 1.31654e-09 -10.2786 0.731801 -0.0259123 1.66292e-09 -6.53341e-10 1.31653e-09 -2.22167 -0.733487 0.20892 -2.03217e-16 0.0 -3.88251e-19 3.47913 -45.9009 -12.1124 -1.2843 62.021 1.39 -2.8606 -6.65855 -10.2396 2.03217e-16 0.0 3.88251e-19 -1.77074 -3.33221 -2.53993 0.519975 48.1176 -1.1139 5.33965 26.0535 -12.9767
15.5477 74.2739 21.4122 45.18 -61.3049 -31.9022 -1.36828 14.1736 -5.73352 -0.148857 -5.1043 -1.61082 -10.8479 0.688142 -1.92759 8.12702 -13.2048 -0.0606751 -0.0 0.0 0.0 -0.0 0.0 0.0 1.20062e-13 1.57053e-12 -3.27641e-13 103.763 31.2912 -39.4053 -26.2302 -45.8005 95.1453 -0.149253 -11.0775 -1.576 1.4363e-09 -5.43062e-10 -2.94556e-09 2.51176e-09 -9.53547e-10 -5.08916e-09 1.4363e-09 -5.43062e-10 -2.94556e-09 7.73091 5.47488 0.417314 1.4363e-09 -5.4306e-10 -2.94557e-09 2.90554 0.965183 0.102902 1.4363e-09 -5.4306e-10 -2.94557e-09 10.2786 0.731801 0.0259123 1.43629e-09 -5.4306e-10 -2.94556e-09 2.22167 -0.733487 -0.20892 1.19997e-13 1.57051e-12 -3.2801e-13 -62.4095 49.0704 -3.8756 -24.5181 -48.7991 101.645 0.841767 -25.1918 3.78818 1.74374e-09 -3.02879e-10 2.80593e-09 2.97654e-09 -5.23295e-10 4.87715e-09 1.74373e-09 -3.02878e-10 2.80595e-09 -7.73091 5.47488 -0.417314 1.74373e-09 -3.02878e-10 2.80593e-09 -2.90554 0.965183 -0.102902 1.74373e-09 -3.02877e-10 2.80593e-09 -10.2786 0.731801 -0.0259123 1.74374e-09 -3.02876e-10 2.80593e-09 -2.22167 -0.733487 0.20892 -2.03217e-16 0.0 -3.88251e-19 4.49888 -44.499 -10.7213 -1.28768 62.032 1.37903 -3.17167 -7.44146 -10.9408 2.03217e-16 0.0 3.88251e-19 -1.26803 -5.04525 -2.53062 0.663763 51.4771 -1.13327 3.05841 25.2002 -7.11432
14.0631 74.2981 22.4616 45.2633 -62.2532 -31.8859 -1.22253 14.4221 -4.6719 1.94138 -4.91226 -1.20297 -11.1773 0.753179 -2.09132 6.53553 -14.1285 -0.434251 -0.0 0.0 0.0 -0.0 0.0 0.0 -2.74528e-14 1.62171e-12 -6.93908e-13 100.292 31.9334 -36.8763 -26.3777 -45.4888 94.4934 -0.182294 -12.1567 -1.73438 2.52422e-09 8.09174e-10 -1.87416e-09 4.38481e-09 1.39494e-09 -3.22423e-09 2.52423e-09 8.09172e-10 -1.87415e-09 7.73091 5.47488 0.417314 2.52422e-09 8.09173e-10 -1.87416e-09 2.90554 0.965183 0.102902 2.52423e-09 8.09173e-10 -1.87416e-09 10.2786 0.731801 0.0259123 2.52422e-09 8.09174e-10 -1.87415e-09 2.22167 -0.733487 -0.20892 -2.75284e-14 1.62168e-12 -6.94243e-13 -66.0619 50.8152 -1.94317 -25.3926 -47.407 98.5493 0.746866 -23.8253 3.55637 1.65383e-09 3.29328e-11 3.99047e-09 2.80057e-09 5.84712e-11 6.92043e-09 1.65383e-09 3.29348e-11 3.99049e-09 -7.73091 5.47488 -0.417314 1.65383e-09 3.29349e-11 3.99048e-09 -2.90554 0.965183 -0.102902 1.65383e-09 3.29356e-11 3.99048e-09 -10.2786 0.731801 -0.0259123 1.65384e-09 3.29374e-11 3.99048e-09 -2.22167 -0.733487 0.20892 -2.03217e-16 0.0 -3.88251e-19 5.31204 -43.0482 -9.51188 -1.28528 61.9919 1.37071 -3.51113 -8.30842 -11.6291 2.03217e-16 0.0 3.88251e-19 -0.725207 -6.86474 -2.29431 0.821663 54.847 -1.17008 0.94559 23.6886 -1.07175
12.4998 74.3937 23.5653 45.8403 -63.1712 -32.3847 -0.976411 14.6714 -3.80301 3.37027 -4.77201 -0.877559 -11.4505 0.650554 -2.34735 5.65252 -14.7075 -0.909053 -0.0 0.0 0.0 -0.0 0.0 0.0 -1.33575e-13 1.44081e-12 -8.49109e-13 97.3583 32.7394 -34.1328 -26.5475 -45.1284 93.7245 -0.207406 -12.8654 -1.83944 2.90097e-09 1.68867e-09 -7.53422e-10 5.02655e-09 2.92279e-09 -1.28102e-09 2.90098e-09 1.68866e-09 -7.53416e-10 7.73091 5.47488 0.417314 2.90097e-09 1.68866e-09 -7.53419e-10 2.90554 0.965183 0.102902 2.90097e-09 1.68866e-09 -7.5342e-10 10.2786 0.731801 0.0259123 2.90096e-09 1.68866e-09 -7.53416e-10 2.22167 -0.733487 -0.20892 -1.33649e-13 1.44077e-12 -8.49407e-13 -69.5156 51.8207 0.457489 -26.1128 -46.0515 95.656 0.682105 -22.7844 3.3843 1.35752e-09 1.32588e-10 3.97791e-09 2.28699e-09 2.29595e-10 6.89342e-09 1.35752e-09 1.3259e-10 3.97792e-09 -7.73091 5.47488 -0.417314 1.35752e-09 1.3259e-10 3.97792e-09 -2.90554 0.965183 -0.102902 1.35751e-09 1.32591e-10 3.97792e-09 -10.2786 0.731801 -0.0259123 1.35752e-09 1.32593e-10 3.97792e-09 -2.22167 -0.733487 0.20892 -2.03217e-16 0.0 -3.88251e-19 5.86918 -41.5203 -8.62056 -1.2734 61.8496 1.36099 -3.80772 -9.32616 -11.9981 2.03217e-16 0.0 3.88251e-19 -0.0862809 -8.85141 -2.00468 0.989008 58.0294 -1.2453 -0.430041 22.2546 3.57201
10.9441 74.4248 24.7395 46.5789 -63.895 -33.1339 -0.613351 14.9311 -3.20761 3.87209 -4.69824 -0.668838 -11.7031 0.305378 -2.79264 5.92829 -14.7673 -1.60461 -0.0 0.0 0.0 -0.0 0.0 0.0 -1.87725e-13 8.28444e-13 -6.65823e-13 95.1386 33.7794 -31.097 -26.7744 -44.6341 92.6593 -0.217085 -13.1145 -1.87663 2.10925e-09 1.9378e-09 6.95746e-10 3.64305e-09 3.35641e-09 1.21882e-09 2.10926e-09 1.9378e-09 6.95748e-10 7.73091 5.47488 0.417314 2.10925e-09 1.9378e-09 6.9575e-10 2.90554 0.965183 0.102902 2.10925e-09 1.9378e-09 6.95747e-10 10.2786 0.731801 0.0259123 2.10924e-09 1.9378e-09 6.95752e-10 2.22167 -0.733487 -0.20892 -1.87774e-13 8.28417e-13 -6.66072e-13 -72.4503 51.825 3.31314 -26.7572 -44.7314 92.7665 0.64238 -22.1107 3.27441 6.51317e-10 -1.85975e-10 1.84685e-09 1.09872e-09 -3.27018e-10 3.20187e-09 6.51316e-10 -1.85974e-10 1.84686e-09 -7.73091 5.47488 -0.417314 6.51317e-10 -1.85974e-10 1.84686e-09 -2.90554 0.965183 -0.102902 6.51311e-10 -1.85973e-10 1.84686e-09 -10.2786 0.731801 -0.0259123 6.51323e-10 -1.85971e-10 1.84686e-09 -2.22167 -0.733487 0.20892 -2.03217e-16 0.0 -3.88251e-19 6.06374 -39.9359 -8.16489 -1.25474 61.6574 1.35213 -4.0207 -10.5723 -11.9161 2.03217e-16 0.0 3.88251e-19 0.600528 -10.9912 -1.74176 1.18603 60.9972 -1.3792 -1.22433 21.2982 6.80175
9.43423 74.4182 25.9279 46.9364 -64.4656 -33.4344 -0.241971 15.2308 -2.75573 3.83377 -4.66692 -0.526668 -11.9618 -0.188185 -3.34691 6.95366 -14.5211 -2.40905 -0.0 0.0 0.0 -0.0 0.0 0.0 -2.20653e-13 -1.19602e-13 -2.69686e-13 93.188 34.9876 -27.7127 -27.0204 -44.0285 91.4142 -0.217992 -13.1278 -1.87869 5.57189e-10 1.84592e-09 2.50095e-09 9.40369e-10 3.19836e-09 4.32725e-09 5.57197e-10 1.84592e-09 2.50094e-09 7.73091 5.47488 0.417314 5.57188e-10 1.84592e-09 2.50095e-09 2.90554 0.965183 0.102902 5.57193e-10 1.84592e-09 2.50095e-09 10.2786 0.731801 0.0259123 5.57185e-10 1.84592e-09 2.50095e-09 2.22167 -0.733487 -0.20892 -2.20664e-13 -1.19611e-13 -2.69875e-13 -75.002 51.0168 6.3692 -27.3119 -43.3493 89.8877 0.61625 -21.6794 3.20395 -3.8108e-10 -7.63623e-10 -1.69901e-09 -6.31246e-10 -1.33473e-09 -2.93795e-09 -3.81083e-10 -7.63623e-10 -1.69901e-09 -7.73091 5.47488 -0.417314 -3.81082e-10 -7.63622e-10 -1.69901e-09 -2.90554 0.965183 -0.102902 -3.81085e-10 -7.63622e-10 -1.69901e-09 -10.2786 0.731801 -0.0259123 -3.81075e-10 -7.6362e-10 -1.69901e-09 -2.22167 -0.733487 0.20892 -2.03217e-16 0.0 -3.88251e-19 6.00795 -38.3136 -8.00757 -1.23007 61.4205 1.34524 -4.16894 -11.9968 -11.5626 2.03217e-16 0.0 3.88251e-19 1.34591 -13.2619 -1.39809 1.4303 63.8472 -1.57536 -1.7348 20.4723 9.36264
7.98375 74.4043 26.9932 47.4855 -64.9791 -33.9142 0.189778 15.5328 -2.36508 3.56755 -4.66352 -0.41115 -12.1405 -0.731544 -3.85253 8.05086 -14.2001 -3.13024 -0.0 0.0 0.0 -0.0 0.0 0.0 -2.33104e-13 -1.02653e-12 1.46832e-13 91.2813 36.2271 -24.1069 -27.2118 -43.4673 90.3404 -0.21112 -12.9381 -1.85048 -1.03241e-09 1.55064e-09 4.01349e-09 -1.82467e-09 2.68732e-09 6.92901e-09 -1.0324e-09 1.55064e-09 4.01348e-09 7.73091 5.47488 0.417314 -1.03241e-09 1.55064e-09 4.01349e-09 2.90554 0.965183 0.102902 -1.03241e-09 1.55064e-09 4.01349e-09 10.2786 0.731801 0.0259123 -1.03241e-09 1.55064e-09 4.01349e-09 2.22167 -0.733487 -0.20892 -2.33079e-13 -1.02652e-12 1.46698e-13 -77.2492 49.7644 9.4277 -27.7022 -41.9971 87.3565 0.603658 -21.4919 3.17284 -1.34463e-09 -1.31007e-09 -5.11433e-09 -2.24419e-09 -2.28755e-09 -8.8512e-09 -1.34464e-09 -1.31007e-09 -5.11433e-09 -7.73091 5.47488 -0.417314 -1.34464e-09 -1.31007e-09 -5.11433e-09 -2.90554 0.965183 -0.102902 -1.34464e-09 -1.31007e-09 -5.11433e-09 -10.2786 0.731801 -0.0259123 -1.34463e-09 -1.31007e-09 -5.11434e-09 -2.22167 -0.733487 0.20892 -2.03217e-16 0.0 -3.88251e-19 5.96827 -36.6209 -7.9124 -1.19326 61.0175 1.3349 -4.26462 -13.4772 -11.0958 2.03217e-16 0.0 3.88251e-19 2.29369 -15.7116 -0.863731 1.71642 66.5674 -1.83247 -1.91745 19.5386 10.9491
